<svg xmlns="http://www.w3.org/2000/svg" width="1024" height="1024"><path fill="#2C186E" d="M280.793 360.815c6.46 0 12.92-.014 19.381-.031q7.557-.015 15.113-.013 3.574 0 7.147-.013c25.806-.077 49.276 1.276 68.77 20.312 15.441 15.767 20.653 35.002 21.421 56.492l.156 3.635c.294 8.013.011 15.825-.781 23.803l2 1h-2l.092 2.136q.206 4.87.408 9.739l.145 3.36c.245 5.964.388 11.876.177 17.844-.006 2.163-.006 2.163 2.178 3.921h-2q-.04 3.688-.062 7.375l-.026 2.117c-.096 3.881-.096 3.881 1.088 7.508h-2l.225 2.22c.792 8.77.87 17.411.643 26.208-.055 2.305-.084 4.61-.112 6.916-.478 23.913-7.855 42.939-23.838 60.82C387 618 387 618 385 618v2c-2.74 1.807-5.533 3.445-8.379 5.078-1.57.925-3.1 1.919-4.621 2.922v2l-2.75.312c-4.486.63-8.814 1.806-13.187 2.97-6.539 1.534-12.93 1.893-19.61 2l-2.706.055q-5.694.115-11.388.215-4.172.08-8.343.167l-2.605.04c-3.366.071-6.197.17-9.411 1.241a179 179 0 0 1-4-2l-2 1c.042-7.825.115-15.65.208-23.474q.043-3.983.063-7.966c.157-27.731 3.657-45.409 22.277-66.296 21.484-24.172 30.541-50.565 30.655-82.725l.017-3.84q.015-4 .02-8.002c.006-3.384.03-6.768.058-10.152.024-3.273.025-6.545.03-9.818l.038-3.628c-.023-8.632-.32-18.62-5.741-25.787-2.751-2.423-4-3.219-7.625-3.312-2.232.369-2.232.369-4 1v-2c-1.607.256-3.21.53-4.812.812l-2.708.458c-2.87.845-3.678 1.365-5.48 3.73-3.336 11.92-4.044 24.662-5.23 36.94-2.23 22.861-5.718 45.58-23.399 62.122-18.284 14.941-37.8 18.333-61.014 17.86-19.622-.241-34.617 3.023-49.1 16.726-11.12 11.814-12.567 26.142-12.417 41.563l.016 4.379q.021 5.724.065 11.448.063 9.192.096 18.384.016 3.202.045 6.406l.02 3.916.025 3.45C168 621 168 621 167 624h-7l.813-2.125c.214-3.285-.134-3.736-2.125-6.188L156 613h-2c-1-3-1-3-1-5l-1-2-2 2c-.687-2.49-1-4.379-1-7l-3-1v-2l-2-1 2-2c-.36-1.025-.722-2.05-1.094-3.105l-1.406-4.083-.723-2.04c-1.264-3.704-2.082-6.851-1.777-10.772l-3 1v-2l-2-1h2c1.01-3.341 1.114-6.358 1.093-9.84l-.013-3.618-.03-3.96-.019-4.18q-.02-4.503-.048-9.004-.038-7.14-.059-14.28l-.023-7.376c-.036-11.077-.081-22.154-.148-33.231q-.068-11.214-.089-22.428c-.008-3.948-.023-7.897-.056-11.845-.303-36.903-.303-36.903 8.142-52.613l1.032-1.99c3.594-6.703 7.837-12.946 13.831-17.713 2.572-1.874 2.572-1.874 4.387-4.922l2.063-1c2.29-.897 2.29-.897 2.937-4l2 1c1.764-.826 3.486-1.74 5.188-2.688 11.395-5.737 21.641-7.557 34.261-7.906l3.967-.117c21.45-.577 42.92-.476 64.377-.474M211 427c-6.821 8.822-8.831 18.02-8 29 1.475 11.098 6.292 18.934 15 26 10.01 5.82 22.627 6.894 33.867 4.352 2.243-.934 4.122-1.991 6.133-3.352l2.32-1.473c8.087-5.644 12.42-12.996 14.68-22.527 1.17-12.46-.673-22.5-8.535-32.344L265 425l-1.516-1.738L262 422c-2.655.23-2.655.23-5 1l-1-2 2-1c-15.35-8.64-34.767-5.256-47 7"/><path fill="#2E1C68" d="m455.2 399.902 3.661.01 3.827.026 3.86.013q4.727.018 9.452.049l1 5 3-1c.043 1.666.04 3.334 0 5l-1 1c.415 2.61.896 5.169 1.434 7.754l.475 2.35q.758 3.73 1.529 7.459l1.025 5.044q1.26 6.199 2.537 12.393h2l-.07 1.758c-.113 4.856.195 8.671 2.07 13.242 1.353-2.585 2.43-5.087 3.281-7.875l.698-2.268.736-2.427.777-2.534q1.226-4.01 2.445-8.021l1.631-5.328A3654 3654 0 0 0 507 407l-3-1 2-1 1-2 2 1 1-4h23c4.498 11.245 4.498 11.245 5.8 15.326l.889 2.77.913 2.873q.99 3.082 1.984 6.164 1.54 4.804 3.074 9.612c.996 3.118 2 6.233 3.004 9.349l.925 2.922.87 2.693.758 2.371c.717 2.112.717 2.112 2.783 3.92q1.966-10.14 3.9-20.288.66-3.452 1.33-6.902c.641-3.305 1.271-6.612 1.899-9.92l.612-3.118.546-2.912.492-2.557c.232-2.42.084-4.035-.779-6.303l-2-1 3-2 2 1v-3c4.104-2.052 9.427-1.185 13.938-1.187l3.365-.038 3.224-.005 2.961-.013C591 400 591 400 594 402c-4.27 21.136-8.658 42.244-13.25 63.313l-.63 2.891c-1.627 7.462-1.627 7.462-2.413 11.013-.962 4.349-1.9 8.7-2.787 13.066l-.527 2.529q-.49 2.355-.949 4.717c-1.106 5.246-1.106 5.246-4.444 7.471-2.588.303-2.588.303-5.656.379l-3.348.103-3.496.08q-3.422.09-6.844.192l-3.068.072c-2.704.073-2.704.073-5.588 1.174l-.836-2.52q-1.213-3.625-2.453-7.242l-1.336-3.925-.695-2.01c-.981-2.899-1.68-5.22-1.68-8.303l-3-1h2c-1.309-3.122-1.309-3.122-4-5l.156-2.973c0-4.452-1.24-8.28-2.656-12.464l-.723-2.217A670 670 0 0 0 524 456h-4l-2 10h-2l-.691 3.469c-1.495 6.71-3.535 13.264-5.568 19.827-.685 2.223-1.352 4.452-2.02 6.68l-1.31 4.243-.598 2.02c-.586 1.853-.586 1.853-1.813 4.761l-3 1-1-1a84 84 0 0 0-5.059.086l-3.107.133-3.272.156-3.26.133c-5.32.016-5.32.016-10.302 1.492-2.779-3.987-3.359-7.236-4-12l-2-1c-.53-2.08-.53-2.08-.941-4.809-1.024-6.176-2.439-12.192-3.997-18.253l-.763-3.124-.764-2.974-.675-2.676c-.759-2.507-.759-2.507-3.86-4.164h3l-1.473-1.234c-1.88-2.174-1.882-3.18-1.964-6.016-.346-4.761-1.253-9.203-2.438-13.812l-.49-2.023c-.527-2.103-.527-2.103-1.635-4.915l-3-1 .652-3.387c.647-5.178-.613-9.488-2.09-14.425q-.72-2.51-1.433-5.02l-.654-2.21C446 404 446 404 446 401c3.297-1.1 5.73-1.114 9.2-1.098M507 405l1 2Zm-55 22 1 3Zm69 20 1 4 1-2zm1 4 1 2Zm8 25 1 2ZM721.984 399.773h3.578l3.833.032 3.946.008q5.177.014 10.352.05c3.526.02 7.052.03 10.578.04 6.91.02 13.82.055 20.729.097l1 3c2.063 1.106 2.063 1.106 4.562 2.062 7.237 3.443 12.217 9.435 15.313 16.813 1.41 4.413 2.035 9.01 2.695 13.586.3 2.523.3 2.523 1.43 4.539l-2 1a112 112 0 0 0-1.75 6.062c-3.11 10.423-8.511 15.724-17.25 21.938q1.903 3.127 3.812 6.25l1.08 1.777c1.904 3.108 3.858 6.105 6.108 8.973l2-1-.617 1.79c-.552 3.183.992 4.824 2.728 7.392l1.326 1.88C800 502.632 800 502.632 800 506c-8.017 1.125-15.921 1.096-24 1l-1 3-1-3a281 281 0 0 0-4-2c-1.245-1.506-1.245-1.506-2.324-3.344l-1.275-2.16a899 899 0 0 1-8.214-14.996l-1.81-3.36A5362 5362 0 0 1 752 473h-9l1 4-1 3 1 1q.061 3.5 0 7h-1c-.082 3.044.024 5.072 1 8l-1 2q.421 3.511 1 7c-4.34 2.161-8.26 2.207-13 2.062-4.486-.111-8.591.048-13 .938-3.313-.938-3.313-.938-6-2l.098-5.566c-.054-2.555-.054-2.555-.597-5.526-.555-4.332-.634-8.512-.615-12.873v-2.633c0-2.852.008-5.703.016-8.554l.005-5.957q.006-7.814.024-15.629.014-7.983.02-15.967.016-15.648.049-31.295c3.817-1.77 6.79-2.245 10.984-2.227M770 401l4 1Zm-28 21v12h1l1 6h-2v6h2v2c2.376.082 4.749.14 7.125.187l2.016.077c5.935.087 9.788-1.466 14.234-5.327 2.372-4.287 2.414-8.143 1.625-12.937-2.123-3.64-4.133-5.446-8-7-2.55-.204-2.55-.204-5.25-.063-4.711.095-9.095-.234-13.75-.937m0 14 1 2Zm0 45 1 2Zm0 3 1 2Zm0 16 1 2Z"/><path fill="#2B1A68" d="m826.063 399.688 2.97.029c4.544.07 8.473.384 12.967 1.283l1 33 3 1 2.02-2.57 1.333-1.698 2.948-3.753q3.858-4.916 7.738-9.815l1.473-1.863q1.389-1.755 2.782-3.505c2.093-2.648 3.927-5.19 5.585-8.14C872 401 872 401 874.98 400.133A78 78 0 0 1 879 400l2.78-.075c3.179-.06 6.353-.061 9.533-.05l3.322-.012 3.166.004 2.88.004C903 400 903 400 905 401c-1.227 4.048-3.311 6.669-6.102 9.793-2.37 2.755-4.571 5.63-6.773 8.52a634 634 0 0 1-11.105 14.12 215 215 0 0 0-4.446 5.852l-1.236 1.682a1050 1050 0 0 0-3.455 4.76L870 448h-2c-.707 1.828-.707 1.828-1 4 .775 1.777.775 1.777 2.14 3.398l1.48 1.93c.537.676 1.076 1.351 1.63 2.047l1.66 2.144A920 920 0 0 0 879 468q1.433 1.834 2.863 3.672c2.24 2.87 4.495 5.73 6.756 8.584Q894.834 488.109 901 496l2.023 2.586C907 503.757 907 503.757 907 506c-6.533 1.067-12.898 1.046-19.512.938-3.015.054-5.554.472-8.488 1.062-3.687-.687-3.687-.687-7-2-1.437-2.125-1.437-2.125-2-4l-3 2c-1-4.75-1-4.75-1-7-1.692-2.771-3.688-5.334-5.625-7.937l-1.582-2.21c-3.164-4.261-5.689-6.899-10.793-8.853l.813-1.625c.472-2.708.472-2.708-2.125-5.562-2.366-2.792-2.366-2.792-4.688-3.813l.508 2.005c.604 3.674.51 7.218.37 10.92l-.07 2.266q-.117 3.561-.245 7.122l-.159 4.845Q842.211 500.08 842 506c-5.94.902-11.69 1.283-17.687 1.375l-2.838.113c-6.73.087-6.73.087-10.182-2.574-1.689-3.806-1.122-5.862-.293-9.914.156-2.75.14-5.496.125-8.25l.012-2.14C811.13 481.47 811 479 810 476c.24-1.577.482-3.154.738-4.728.594-5.147.36-10.365.324-15.538l-.011-3.85q-.019-6.067-.051-12.134-.04-8.008-.062-16.016l-.026-3.73-.01-3.45-.016-3.038C811 411 811 411 812 408l-4-2c3.611-7.222 11.106-6.52 18.063-6.312M842 437l1 2 1-2z"/><path fill="#2C1A6A" d="m607.598 399.757 3.25.013 3.521.005 3.694.037 3.705.002c9.092.046 9.092.046 10.232 1.186.248 2.603.43 5.18.563 7.79l.128 2.431c.45 9.384.383 18.762.309 28.154-1.014 19.864-1.014 19.864 4 38.625l1 3c5.63 2.568 11.888 3.434 18 4l1-3v2c4.097-1.654 7.271-3.012 9.938-6.625 2.812-8.934 2.17-18.582 2.09-27.844q-.012-2.056-.02-4.113-.037-8.663-.104-17.327-.04-5.328-.055-10.655c-.009-2.005-.03-4.009-.05-6.013l-.01-3.663-.023-3.233C669 402 669 402 671 400c2.614-.227 2.614-.227 5.883-.195l3.535.02 3.707.05 3.73.027q4.573.036 9.145.098c2.394 4.88 3.37 7.915 2.688 13.437l-.364 3.184L699 419l2 1h-2a4128.498 4128.498 0 0 1 .11 18.83q.015 3.192.04 6.385c.316 39.457.316 39.457-10.837 50.847L686 498c-1.773 1.52-1.773 1.52-3 3v3l-2.687.25c-3.728.515-7.172 1.601-10.75 2.75-4.915 1.566-9.429 2.597-14.563 3v2l-2.973-.93c-4.117-1.176-8.217-1.72-12.464-2.195l-2.217-.262Q634.673 508.3 632 508v-2l-2.195-.34c-8.507-2.002-14.638-7.919-19.805-14.66l-2 1-.437-3.188A143 143 0 0 0 606 480h-3v-2l-3-1 2-1-.559-1.762c-.584-2.965.282-5.277 1.075-8.14.867-3.758 1.232-7.601-.516-11.098a58 58 0 0 1-.098-4.027l.01-2.4.026-2.51.013-2.499q.014-2.3.033-4.603c.024-2.992-.023-5.077-.984-7.961h2c-.01-.868-.02-1.736-.032-2.63q-.05-4.826-.078-9.65-.015-2.09-.04-4.179c-.025-2-.035-4.001-.045-6.002l-.032-3.65c.297-3.784 1.002-4.774 4.825-5.132M603 468v7h1v-7z"/><path fill="#2F1C68" d="m536.938 525.875 2.936.003c16.06.017 32.083.335 48.126 1.122q.521 2.136 1.023 4.277l.576 2.406c.513 2.962.143 5.422-.599 8.317h2l-1-3h2v13h-30l.032 7.496q.048 12.237.072 24.475.014 7.422.047 14.844.032 7.158.039 14.316.005 2.736.021 5.471c.015 2.548.017 5.096.016 7.644l.022 2.301c-.02 5.225-.02 5.225-2.249 7.453-2.506.151-2.506.151-5.629.012l-3.385-.143-3.548-.182-3.561-.146c-8.735-.399-8.735-.399-9.877-1.541-1.869-16.17-.923-32.662-.605-48.904.072-3.742.136-7.483.2-11.225.128-7.29.267-14.58.405-21.871h-30c-1-3-1-3-1-6l1-1c.047-1.52.037-3.042 0-4.562-.053-4.588.328-8.903 1-13.438 10.609-1.362 21.265-1.153 31.938-1.125M588 544l1 3Zm1 3v3Z"/><path fill="#2B196C" d="m496 527-2 1v106c-5.984 1.496-9.472 2.222-15.312 2.063-4.935-.153-4.935-.153-9.688.937v-2l-5 1v-7h2l-1-5h-1v-11h2v-5h-2v-9h2l-1-12h-1v-11h1c.198-6.084.198-6.084-1-12h2v-4h-2l.219-1.863.281-2.45.281-2.425c.267-2.381.267-2.381.219-5.262v-21c10.388-1.412 20.58-.663 31 0m-31 74 1 3Z"/><path fill="#412C60" d="M214 579c3.43 1.143 4.695 2.252 7 5 3.119 8.782 2.122 18.947 1.779 28.121a885 885 0 0 0-.238 7.404q-.076 2.365-.154 4.729l-.07 2.225c-.119 3.074-.338 5.585-1.317 8.521-3.062 1.688-3.062 1.688-6 3v1l-9 1c-2.837-8.176-3.415-15.74-3.281-24.36.03-2.005.04-4.01.047-6.015.03-3.878.116-7.749.234-11.625l.1-3.731.166-3.496.133-3.088c.75-3.354 1.897-4.61 4.601-6.685 3.25-.25 3.25-.25 6 0z"/><path fill="#07025F" d="m496 527-2 1v106c-5.984 1.496-9.472 2.222-15.312 2.063-4.935-.153-4.935-.153-9.688.937v-2l-5 1v-7h2l-1-5h-1v-11h2v-5h-2v-9h2l-1-12h-1v-11h1c.198-6.084.198-6.084-1-12h2v-4h-2l.219-1.863.281-2.45.281-2.425c.267-2.381.267-2.381.219-5.262v-21c10.388-1.412 20.58-.663 31 0m-28 2v103h25V529zm-3 72 1 3Z"/><path fill="#301D66" d="M411 424h1c.2 4.395.383 8.791.563 13.188l.17 3.716c.32 8.117.082 16.014-.733 24.096l2 1h-2l.092 2.136q.206 4.87.408 9.739l.145 3.36c.245 5.964.388 11.876.177 17.844-.006 2.163-.006 2.163 2.178 3.921h-2q-.04 3.688-.062 7.375l-.026 2.117c-.096 3.881-.096 3.881 1.088 7.508h-2l.232 2.196c.831 8.991.766 17.82.471 26.836-.079 2.426-.145 4.852-.21 7.279l-.141 4.685-.06 2.169c-.138 4.023-.536 7.881-1.292 11.835h-1v-15h-1V440h1z"/><path fill="#543E53" d="M276.326 360.87q8.764.006 17.527-.004 6.8-.005 13.6 0 3.236 0 6.473-.002 4.477-.003 8.954.007l2.682-.007c3.393.012 6.196.055 9.438 1.136a73 73 0 0 0 4.012.316l2.295.127 2.38.12 2.417.13q2.947.158 5.896.307v1H195v-1c5.827-1.296 11.597-1.368 17.547-1.555l1.98-.063c20.592-.639 41.2-.533 61.799-.512"/><path fill="#120762" d="m609.938 400.813 3.277-.043C616 401 616 401 618 403l-12 1 1 76h-4v-2l-3-1 2-1-.559-1.762c-.584-2.965.282-5.277 1.075-8.14.867-3.758 1.232-7.601-.516-11.098a58 58 0 0 1-.098-4.027l.01-2.4.025-2.51.014-2.499q.014-2.3.033-4.603c.024-2.992-.023-5.077-.984-7.961h2l-.016-2.646q-.025-4.845-.039-9.69-.008-2.099-.02-4.198a1698 1698 0 0 1-.023-6.025l-.016-3.665c.204-4.986 2.625-3.937 7.052-3.964M603 468v7h1v-7z"/><path fill="#543E4D" d="M297 579h2v53h53v1h-6v2l-3.716.076q-6.818.142-13.636.296-2.952.066-5.905.125-4.24.088-8.481.187l-2.671.05-2.487.06-2.187.048c-2.138.1-2.138.1-4.917 1.158a179 179 0 0 1-4-2l-2 1z"/><path fill="#79593E" d="M496 527v1h-29l.016 9.531q.023 15.548.036 31.097.007 9.432.023 18.863.016 9.094.02 18.187.003 3.478.01 6.956.01 4.852.009 9.706l.01 2.936-.004 2.656.003 2.32C467 632 467 632 466 633l25 1c-4.835 2.418-8.286 2.147-13.6 2.01-3.109-.059-5.42-.003-8.4.99v-2l-5 1v-7h2l-1-5h-1v-11h2v-5h-2v-9h2l-1-12h-1v-11h1c.198-6.084.198-6.084-1-12h2v-4h-2l.219-1.863.281-2.45.281-2.425c.267-2.381.267-2.381.219-5.262v-21c10.388-1.412 20.58-.663 31 0m-31 74 1 3Z"/><path fill="#614B4A" d="M671 400h26c3.375 7.875 3.375 7.875 2.688 13.438l-.364 3.183L699 419l2 1h-2a4128.498 4128.498 0 0 1 .11 18.83q.015 3.192.04 6.385c.258 32.173.258 32.173-4.15 38.785-1-3-1-3 0-6 1.699-14.708 1.118-29.674 1.069-44.449q-.014-5.18-.02-10.36-.017-10.095-.049-20.191h-24z"/><path fill="#120855" d="M144 407h1l-.219 2.633-.281 3.492-.281 3.445A124 124 0 0 0 144 426l-3 1 .008 3.124c.063 27.367-.126 54.725-.472 82.09q-.092 7.455-.18 14.911-.174 14.438-.356 28.875h-1q-.142-25.206-.207-50.412-.028-11.706-.095-23.412-.06-10.213-.074-20.427c-.006-3.6-.018-7.198-.047-10.797-.256-32.594-.256-32.594 5.423-43.952"/><path fill="#82614E" d="M711 402h2l1 55h1l1 48 7 1c-1.562 1.125-1.562 1.125-4 2-3.75-.875-3.75-.875-7-2l.098-5.566c-.054-2.555-.054-2.555-.597-5.526-.555-4.332-.634-8.512-.615-12.873v-2.633c0-2.852.008-5.703.016-8.554l.005-5.957q.006-7.814.024-15.629.014-7.983.02-15.967.016-15.647.049-31.295"/><path fill="#0C025B" d="M534 552h2v81h24v1h-26c-1.242-16.318-.925-32.56-.605-48.904.072-3.742.136-7.483.2-11.225q.193-10.935.405-21.871"/><path fill="#E2B223" d="M813 402v102l-3-2 .492-2.984c.585-4.101.656-8.13.633-12.266l.012-2.14C811.13 481.47 811 479 810 476c.24-1.577.482-3.154.738-4.728.594-5.147.36-10.365.324-15.538l-.011-3.85q-.019-6.067-.051-12.134-.04-8.008-.062-16.016l-.026-3.73-.01-3.45-.016-3.038C811 411 811 411 812 408l-4-2c1.065-2.13 2.294-4 5-4"/><path fill="#A98439" d="M603 402h1l2 78h-3v-2l-3-1 2-1-.559-1.762c-.584-2.965.282-5.277 1.075-8.14.867-3.758 1.232-7.601-.516-11.098a58 58 0 0 1-.098-4.027l.01-2.4.025-2.51.014-2.499q.014-2.3.033-4.603c.024-2.992-.023-5.077-.984-7.961h2zm0 66v7h1v-7z"/><path fill="#160A64" d="M205 588c3.175 6.35 3.127 12.674 3.133 19.676l.003 2.096q0 2.169-.006 4.339c-.005 2.213 0 4.427.007 6.641q0 2.118-.004 4.236l-.004 3.86C208 632 208 632 207 635h-2z"/><path fill="#9E7639" d="M325 389c2.564-.108 5.123-.187 7.688-.25l2.185-.102c3.827-.07 5.682.073 9.01 2.157 1.768 1.833 3.108 3.344 4.305 5.57l.917 1.648c3.112 6.877 3.084 12.716 2.872 20.157l-.076 3.539c-.082 3.719-.179 7.437-.276 11.156l-.172 7.578q-.21 9.274-.453 18.547h-1q-.26-6.062-.5-12.125l-.149-3.698c-.254-6.788-.372-13.546-.268-20.339.412-15.026.412-15.026-5.458-28.526-2.751-2.423-4-3.219-7.625-3.312-2.232.369-2.232.369-4 1v-2h-7z"/><path fill="#251859" d="m819.832 399.867 2.92-.004 3.06.012 3.026-.012 2.932.004 2.675.004c2.606.132 5.013.554 7.555 1.129l.06 2.998c.076 3.664.165 7.327.257 10.991q.058 2.38.105 4.761c.045 2.279.103 4.557.164 6.836l.035 2.156c.013 4.079.013 4.079 2.379 7.258l-3 1 2 1v2h-3l-1-37c-13.58-.039-13.58-.039-27 1v-3c2.457-1.228 4.087-1.13 6.832-1.133"/><path fill="#0D0363" d="M584 528h4c1.513 5.16 2.335 8.66 1 14h2l-1-3h2v13l-31-1v-1h25v-21zm4 16 1 3Zm1 3v3Z"/><path fill="#402F52" d="m882.227 399.867 3.625-.004 3.773.012 3.797-.012 3.617.004 3.319.004C903 400 903 400 905 401c-1.27 3.914-2.512 5.79-6 8 .506-2.169 1-4 2-6-4.438.052-8.875.147-13.312.25l-3.827.043-3.662.098-3.38.063c-2.948.283-2.948.283-4.706 2.584L871 408l-3-1c3.446-5.784 3.446-5.784 5.751-6.683 2.846-.401 5.601-.447 8.476-.45"/><path fill="#765A40" d="M466 592h1q.037 8.518.055 17.035.008 2.9.02 5.8c.013 2.772.018 5.545.023 8.317l.015 2.636c0 2.071-.05 4.142-.113 6.212l-1 1 25 1c-4.835 2.418-8.286 2.147-13.6 2.01-3.109-.059-5.42-.003-8.4.99v-2l-5 1v-7h2l-1-5h-1v-11h2v-5h-2v-9h2zm-1 9 1 3Z"/><path fill="#4F3A48" d="m262 479 2 1c-5.548 5.865-9.8 8.704-17.966 9.094-2.158.04-4.313.042-6.471.031l-2.198.012c-4.555-.008-8.871-.391-13.365-1.137v-2l-2.375-.312C219 485 219 485 217 482c2.333.376 4.526.796 6.703 1.734 8.49 3.543 19.447 3.808 28.32 1.47 3.653-1.578 6.965-3.585 9.977-6.204"/><path fill="#1C125B" d="M630 402h2c.766 9.94 1.107 19.843 1.125 29.813l.014 3.103c-.014 7.071-.452 14.047-1.139 21.084h-1c-.94-6.322-1.132-12.458-1.098-18.844l.005-3.06c.005-3.198.018-6.397.03-9.596q.009-3.27.014-6.54.017-7.98.049-15.96"/><path fill="#67504D" d="M671 400h26c3.107 7.25 3.33 8.105 2 15l-3 1v-13h-24z"/><path fill="#745B4C" d="M718 400h41l1 2-2.937-.035c-7.15-.058-14.242.033-21.375.535-6.246.438-12.43.62-18.688.5z"/><path fill="#5D454D" d="m473 503 28 1-1 3-2.08.076q-4.647.176-9.295.361l-3.273.12-3.125.127-2.889.11c-2.36.064-2.36.064-4.338 1.206-2-3-2-3-2-6"/><path fill="#15095C" d="m671.766 400.886 2.27.016 2.45.01 2.577.025 2.587.014q3.175.02 6.35.049v1h-16v34c-3.689-7.378-3.157-15.343-3.125-23.438l-.012-3.044.004-2.89.004-2.622c.164-2.554.33-2.955 2.895-3.12"/><path fill="#07025A" d="m739 420 22 1v1h-20v27h17v1h-18c-.608-10.031-1.129-19.948-1-30"/><path fill="#1C105E" d="M840 464c3.322 3.322 2.995 7.163 3.022 11.71q-.063 2.048-.143 4.095l-.072 2.194q-.116 3.438-.245 6.876l-.158 4.688q-.193 5.719-.404 11.437h-2z"/><path fill="#513B5C" d="M605 400h26l1 2h-2l-1 3-21-1v-1l8-1-11-1z"/><path fill="#05015E" d="M165 557h1v66l-2-1v-2h-2v-2h3z"/><path fill="#34245B" d="m480 425 2 1c.594 1.858.594 1.858 1.07 4.254l.528 2.588.527 2.72.55 2.733q.674 3.35 1.325 6.705h2l-1 9h-2c-1.766-4.71-2.486-9.03-3-14h-2z"/><path fill="#60494F" d="M464 400h12l1 5 3-1c.043 1.666.04 3.334 0 5l-1 1v4h-2c-1.51-4.06-2-6.546-2-11h-11z"/><path fill="#D5A632" d="m741 472 3 2-.562 2.938L743 480l1 1q.062 3.5 0 7h-1c-.082 3.044.024 5.072 1 8l-1 2q.421 3.511 1 7l-3 1zm1 9 1 2Zm0 3 1 2Zm0 16 1 2Z"/><path fill="#4A3355" d="m411 525 2 1q-.178 9.021-.372 18.042-.065 3.068-.125 6.134-.088 4.416-.187 8.832l-.05 2.756c-.105 4.508-.369 8.8-1.266 13.236h-1a9981 9981 0 0 1-.055-19.916q-.008-3.389-.02-6.777c-.013-3.244-.018-6.489-.023-9.733l-.015-3.068v-2.851l-.007-2.51C410 528 410 528 411 525"/><path fill="#362555" d="M562 415h1c.888 4.875.957 8.734.004 13.59l-.693 3.623-.749 3.724-.736 3.807q-.899 4.632-1.826 9.256c-2-2-2-2-2.05-3.974.804-6.6 1.879-13.12 3.112-19.651l.565-3.043q.681-3.668 1.373-7.332"/><path fill="#483651" d="m170 371 5 1c-3.36 4.11-6.603 7.946-11 11h-2l-2 4h-3v2l-2-1a975 975 0 0 1 3.375-3.937l1.898-2.215C162 380 162 380 164 379l2-3c2.125-1.187 2.125-1.187 4-2z"/><path fill="#453352" d="m301 476 2 1c-4.27 7.26-8.75 13.334-15 19l-2-2c.625-2.875.625-2.875 2-6l2.688-.75c5.271-1.99 7.411-6.599 10.312-11.25"/><path fill="#2E1E53" d="M669 432h2c1.843 5.666.949 11.875.758 17.754-.07 2.238-.125 4.476-.178 6.715l-.13 4.281c-.039 1.294-.076 2.588-.115 3.922C671 468 671 468 669 472z"/><path fill="#0E0466" d="M410 532h1q.037 7.443.055 14.886.008 2.528.02 5.054c.013 2.435.018 4.87.023 7.306l.015 2.246c0 5.238-.463 10.31-1.113 15.508h-2q-.04-3.22-.062-6.437l-.036-3.622C408 564 408 564 409 563c.159-2.29.251-4.584.316-6.879l.063-2.08q.097-3.302.183-6.604l.131-4.466q.161-5.486.307-10.971"/><path fill="#49384B" d="m825.938 399.813 3.076-.038 2.95-.005 2.708-.013C837 400 837 400 840 402c-6 .827-11.95 1.28-18 1.563l-2.637.13q-3.18.157-6.363.307v-3c3.873-1.936 8.678-1.185 12.938-1.187"/><path fill="#362656" d="M859 485c4.324 2.042 5.902 4.202 8.02 8.281 1.31 2.297 3.018 3.967 4.98 5.719-1 3-1 3-3.062 4.188L867 504c-1-4.75-1-4.75-1-7-1.742-2.342-3.605-4.564-5.469-6.809C859 488 859 488 859 485"/><path fill="#28195C" d="m656 482 1 2 2.375-.562C662 483 662 483 664 484v4c-2 .043-4 .04-6 0l-1-1c-2.02-.072-4.042-.084-6.062-.062l-3.348.027L645 487l-1-2h12z"/><path fill="#443053" d="M698 456h1c.876 20.686.876 20.686-4 28-1-3-1-3 0-6 .228-2.733.417-5.45.563-8.187l.13-2.272q.158-2.77.307-5.541h2z"/><path fill="#816546" d="M412 491h1l-.07 2.117-.055 2.758-.07 2.742c-.048 2.571-.048 2.571 2.195 4.383h-2q-.04 3.688-.062 7.375l-.026 2.117c-.096 3.881-.096 3.881 1.088 7.508h-3q-.042-6.687-.062-13.375l-.026-3.852-.01-3.671-.016-3.396C411 493 411 493 412 491"/><path fill="#190D64" d="M202 442h1c.029 3.104.047 6.208.063 9.313l.025 2.67.01 2.568.016 2.364C203 461 203 461 202 464h-2q.21-4.938.438-9.875l.119-2.84.127-2.715.11-2.507C201 444 201 444 202 442"/><path fill="#765948" d="m520 448 1.875 1.063L524 450l2-1c2.48 9.41 2.48 9.41 1 14-1.206-2.332-2.165-4.496-3-7l-5-1zm2 3 1 2Z"/><path fill="#271864" d="M464 401v2h8v1h-23v-2c5.08-.847 9.848-1.09 15-1"/><path fill="#3E2A53" d="M144 407h1l-.219 2.633-.281 3.492-.281 3.445A124 124 0 0 0 144 426l-3 1c-1.734-7.514.252-12.923 3-20"/><path fill="#E7B526" d="M464 629h2v4l25 1c-4.835 2.418-8.286 2.147-13.6 2.01-3.109-.059-5.42-.003-8.4.99v-2l-5 1z"/><path fill="#1B0D67" d="M140 560h4c.212 5.192-.409 9.127-2 14l-2-1z"/><path fill="#3B2956" d="m332 522 3 2-3 1-.375 1.75c-.944 3.397-2.996 4.988-5.625 7.25-2.168.645-2.168.645-4 1 3.267-4.389 6.549-8.753 10-13"/><path fill="#2E1E5C" d="M411 467h1c.226 3.582.428 7.166.625 10.75l.195 3.078.157 2.969.158 2.73c-.145 2.662-.778 4.204-2.135 6.473-1-1-1-1-1.133-3.266.02-7.619.448-15.146 1.133-22.734"/><path fill="#4F3A56" d="M581 452h2c-.746 7.46-2.367 14.69-4 22-1.888-3.132-2.18-4.787-1.32-8.328l.566-2.422.629-2.5.605-2.547c.495-2.07 1.006-4.137 1.52-6.203"/><path fill="#69544E" d="M510 400q4.125-.08 8.25-.125l2.355-.05 2.286-.02 2.094-.032c2.354.265 3.967 1.067 6.015 2.227l-1.712.06c-2.555.095-5.109.205-7.663.315-.89.03-1.779.062-2.695.094l-2.578.117-2.38.095c-2.202.159-2.202.159-3.972 2.319z"/><path fill="#684E46" d="m458 448 3 1c.563 1.875.563 1.875 1 4l2 3c-.023 2.48-.023 2.48-.375 5.188l-.336 2.73L463 466l-.812-1.875C461.044 461.7 461.044 461.7 458 460h3l-1.488-1.207c-1.944-2.305-1.829-3.513-1.7-6.48l.083-2.45z"/><path fill="#3C2B53" d="m309 549 1 2c-.926 1.918-.926 1.918-2.312 4.188-1.718 2.928-3.026 5.508-3.813 8.812l-.875 3-3 1c1.865-6.414 4.153-14.153 9-19"/><path fill="#E7B426" d="M588 533c2 3 2 3 1.625 6.188L589 542h2l-1-3h2v13l-4-1 .563-1.812c.658-2.352.658-2.352-.563-5.188a119 119 0 0 1-.062-5.687l.027-3.012z"/><path fill="#160B63" d="m739 420 22 1v1l-20 1-1 9h-1z"/><path fill="#523D4E" d="m734.125 503.938 3.32.027L740 504v3h-14v-2c2.765-1.382 5.046-1.095 8.125-1.062"/><path fill="#735644" d="M565 401c2 3 2 3 3 6h-2l-1 7h-2l.063-2.875c.163-3.032.163-3.032-1.063-5.125l-2-1 3-2 2 1z"/><path fill="#675048" d="M456 400v2l-7 1 1 13c-1.776-3.552-2.486-5.918-3.125-9.75l-.508-2.984L446 401c3.473-1.158 6.36-1.069 10-1"/><path fill="#5E454F" d="M142 568h2c.143 8.571.143 8.571-1 12h-2v-5l-3 1v-2l-2-1h2l1-3 2 3z"/><path fill="#7B6049" d="m236.875 414.875 2.664.027c2.154.024 4.307.06 6.461.098v1l-3.148.113c-8.012.355-15.279.992-22.852 3.887l1-3c5.16-2.49 10.285-2.234 15.875-2.125"/><path fill="#816A48" d="M605 400q4.375-.08 8.75-.125l2.5-.05 2.422-.02 2.222-.032c2.405.26 4.019 1.035 6.106 2.227-1.899 1.899-4.572 1.124-7.09 1.133C618 403 618 403 616 402c-1.87-.228-3.747-.41-5.625-.562l-3.04-.254L605 401z"/><path fill="#3F2D54" d="m262 479 2 1c-7.404 7.827-7.404 7.827-12.812 8.188L249 488v-2l1.828-.77c5.929-2.526 5.929-2.526 11.172-6.23"/><path fill="#816446" d="M325 389c2.584-.081 5.165-.14 7.75-.187l2.21-.077c3.385-.046 5.619.01 8.556 1.776L345 392l-1 3-1.187-1.437c-2.282-1.967-3.836-2.273-6.813-2.563-2.232.369-2.232.369-4 1v-2h-7z"/><path fill="#BC9436" d="M640 508h23v1l-8 1v2l-3-.937c-3.977-1.147-7.888-1.63-12-2.063z"/><path fill="#332457" d="m200 364-1.812.875c-2.381 1.172-2.381 1.172-5.188 3.125-2.043.195-2.043.195-4.187.125L185 368v-2c5.13-2.104 9.561-2.218 15-2"/><path fill="#493652" d="M841 464h7v7l2 1c-3 0-3 0-5.625-2.312C842 467 842 467 841 464"/><path fill="#413054" d="M517 455h2l-1 11h-2l-1 6h-1c-.345-6.334.707-11.103 3-17"/><path fill="#271B53" d="M630 402h2q.251 4.156.5 8.313l.145 2.38.263 4.406c.079 1.632.092 3.267.092 4.901h-2c-.883-4.518-1.106-8.775-1.062-13.375l.027-3.773z"/><path fill="#301F62" d="M163 608h2v10l-4 1-2-4 3-1z"/><path fill="#3B295A" d="M207 470c2.648 2.578 4.944 4.916 7 8l-1 2h-5l.063-2.75c-.052-2.677-.285-4.72-1.063-7.25"/><path fill="#5E4648" d="m170 371 5 1c-5.094 6.705-5.094 6.705-8.875 7.938L164 380c1.049-2.622 1.65-3.794 4.125-5.25L170 374z"/><path fill="#5B4450" d="M149 592h3c-.187 2.875-.187 2.875-1 6-2.562 1.375-2.562 1.375-5 2v-2l-2-1h3z"/><path fill="#3D2E56" d="M217 482c4.847.782 9.377 2.398 14 4-3 2-3 2-7 2v-2l-2.375-.312C219 485 219 485 217 482"/><path fill="#3B2A57" d="M347 485c2 3 2 3 3 6-.75 2.625-.75 2.625-2 5l-3 1c1-8.571 1-8.571 2-12"/><path fill="#402F4F" d="M764 493c3 1 3 1 4.168 3.066l1.02 2.497 1.042 2.503L771 503h-3a652 652 0 0 1-2-3.875l-1.125-2.18C764 495 764 495 764 493"/><path fill="#4D374D" d="M469 489h2v4h2l-1 7-1-3-2-1z"/><path fill="#4D3559" d="m656 482 1 2 2.375-.562C662 483 662 483 664 484v4h-6l1-2-3-1z"/><path fill="#49364D" d="M741 471c1.937-.081 3.875-.14 5.813-.187l3.269-.106c2.918.293 2.918.293 4.793 1.637 1.54 2.268 1.342 3.978 1.125 6.656-1.506-1.964-2.891-3.783-4-6-2.586-.468-2.586-.468-5.562-.625l-3.067-.227L741 472z"/><path fill="#584152" d="m484 444 4 1-1 9h-2z"/><path fill="#453353" d="m860 417 1 3c-.996 1.824-.996 1.824-2.437 3.688l-1.434 1.886L856 427l-3-1z"/><path fill="#483451" d="M407 410h2c1.138 4.266 2 7.565 2 12h-2c-1.138-4.266-2-7.565-2-12"/><path fill="#5B464B" d="M824 400a609 609 0 0 1 6.313-.125l3.55-.07C837 400 837 400 840 402c-5.687.914-10.313.914-16 0z"/><path fill="#1D1164" d="M222 509v2c-3.311 1.104-5.247.927-8.687.563l-3.012-.31L208 511v-1c4.672-1.206 9.215-1.094 14-1"/><path fill="#43314F" d="M756 479c1.875.125 1.875.125 4 1 1.767 3.787 2.191 6.049 1 10a805 805 0 0 1-2.5-4.375l-1.406-2.46C756 481 756 481 756 479"/><path fill="#30205B" d="M384 376c4.274 1.583 6.265 4.506 9 8-3 0-3 0-4.605-1.242l-1.582-1.633-1.606-1.617C384 378 384 378 384 376"/><path fill="#71553F" d="M867 496c2 0 2 0 3.625 1.5L872 499c-1 3-1 3-3.062 4.188L867 504c-.8-3.287-1.097-4.71 0-8"/><path fill="#37255A" d="m288 488 4 1c-1.25 3.653-1.671 4.78-5 7 0-2.84.403-5.237 1-8"/><path fill="#5E474D" d="m530 470 2 1c.594 2.649.742 5.292 1 8l-3 1c-1.238-3.576-.75-6.337 0-10m0 6 1 2Z"/><path fill="#795C44" d="m257 416 2 1c.625 3.063.625 3.063 1 6l-4 1 1-4-3-1v-2z"/><path fill="#41304A" d="M876 400c0 3 0 3-2.5 5.688L871 408l-3-1c3.446-5.785 3.446-5.785 6.25-6.875z"/><path fill="#35265B" d="m401 595 2 1c-1.45 4.11-3.511 7.433-6 11-1-3-1-3-.258-4.754l1.133-1.808 1.117-1.817L400 597z"/><path fill="#443151" d="m321 535 1 3c-1.437 2.688-1.437 2.688-3 5l-4-1z"/><path fill="#402E53" d="M871 460c3.404 1.135 4.217 1.968 6 5l-1 3c-2.5-1.75-2.5-1.75-5-4z"/><path fill="#26195B" d="M494 450h2v8h-3z"/><path fill="#5C4752" d="m411 525 2 1v10h-2c-1.125-7.625-1.125-7.625 0-11"/><path fill="#372452" d="M832 504c6.055-.195 6.055-.195 8 0l2 2c-6.625 1-6.625 1-10 1z"/><path fill="#35255A" d="m883 474 4 5-7 1v-3h3z"/><path fill="#39295C" d="M274 459h2v7h-2v2h-2z"/><path fill="#392A54" d="m897 409 1 3c-1.215 2.043-1.215 2.043-2.937 4.188l-1.715 2.167L892 420l-1-4h2l.875-1.812C895 412 895 412 897 409"/><path fill="#28185D" d="M898 403h3l-2 7h-3v-5h2z"/><path fill="#7C6140" d="M896 400c6.75-.125 6.75-.125 9 1l-2 5-1-4-6-1z"/><path fill="#695144" d="M155 608h2c2 3 2 3 1.625 5.188L158 615c-1.937-.812-1.937-.812-4-2l-1-3h2z"/><path fill="#7E6342" d="m827 505-1 2h-12v-1q2.404-.544 4.813-1.062l2.707-.598C824 504 824 504 827 505"/><path fill="#6A5041" d="M771 504h7l-2 1c-.656 2.527-.656 2.527-1 5l-1-3-3-1z"/><path fill="#21145A" d="M687 494v3c-2 1.688-2 1.688-4 3l-3-2v-2z"/><path fill="#564157" d="M203 456h1l2 12h-2c-2.83-3.996-1.762-7.427-1-12"/><path fill="#412E54" d="M579 461h1c.077 4.516.102 8.59-1 13-1.45-2.341-2.043-3.58-1.758-6.36l.633-2.39.617-2.422z"/><path fill="#3D2B52" d="M794 446h2c-.615 5.538-.615 5.538-2.562 7.875L792 455c.875-6.75.875-6.75 2-9"/><path fill="#765D46" d="m841 430 2 4 2 2-3 1 2 1v2h-3z"/><path fill="#443059" d="M585 431h2l-1 10c-2.567-3.85-1.833-5.586-1-10"/><path fill="#342553" d="M792 418h2c1.257 2.906 2 4.796 2 8h-2c-1.765-3.088-2-4.233-2-8"/><path fill="#433056" d="m145 583 2 1-1 8c-1.746-2.62-2.387-4.038-3-7h2z"/><path fill="#684D49" d="m610 488 4 3-1 4-3-4-2 1v-3z"/><path fill="#543E50" d="M562 415h1c1.286 7.429 1.286 7.429 0 11h-2z"/><path fill="#1A1058" d="M586 544h2c.934 3.01 1.044 3.867 0 7l-4-1h2z"/><path fill="#80603F" d="m683 499 1 4c-3.75 1.125-3.75 1.125-6 0v-2c3-2 3-2 5-2"/><path fill="#1F1260" d="M559 445h1c.125 3.375.125 3.375 0 7l-2 2c-.625-3.375-.625-3.375-1-7z"/><path fill="#2F2158" d="m210 424 4 1-5 6c-1-3-1-3-.062-5.187z"/><path fill="#3C2D5B" d="M345 393c2 1.563 2 1.563 4 4 .25 3.75.25 3.75 0 7l-2-4-1.125-2.062C345 396 345 396 345 393"/><path fill="#D4A223" d="M273 447h1v7l-2-1a100 100 0 0 1 0-5z"/><path fill="#CB9A30" d="M511 486c.687 2.49 1 4.379 1 7h-2z"/><path fill="#DCA822" d="m264 426 3 3-2 1-1 2z"/><path fill="#DCA924" d="M640 510h7l-1 2-6-1z"/><path fill="#DDAC20" d="M202 591h1v7c-2-3-2-3-1.625-5.187z"/><path fill="#DBAB25" d="M656 510h7l-2 2c-2.625-.375-2.625-.375-5-1z"/><path fill="#DCAA29" d="M415 491c1.125 3.75 1.125 3.75 0 6l-2-1z"/><path fill="#DDA521" d="M789 480h3v4h-2z"/><path fill="#CC9D27" d="M464 588h1v7h-1z"/><path fill="#E0AF1C" d="m136 505 2 4-2 1z"/><path fill="#C99935" d="M554 448h1v5l-2 1z"/><path fill="#CA9A2D" d="m500 428-1 3-3-2c2-1 2-1 4-1"/><path fill="#CC992F" d="m600 402 2 1-1 4z"/><path fill="#D2A12A" d="M464 537h1v6h-1z"/><path fill="#E1AE1D" d="m136 538 2 4h-2z"/><path fill="#D6A025" d="m465 482 1 4-2-1z"/><path fill="#D19C27" d="m752 475 2 4h-2z"/><path fill="#D7A326" d="M348 457h1v6h-1z"/><path fill="#D09D2A" d="M766 429v3l-3-2z"/><path fill="#C29131" d="M700 428h1v6h-1z"/><path fill="#D09D25" d="m798 426 2 1-1 3z"/><path fill="#D19E28" d="M848 426h2v3h-2z"/><path fill="#C6952F" d="m700 413 2 4-2 1z"/><path fill="#DFAA22" d="M667 403h2v5c-2-3.875-2-3.875-2-5"/><path fill="#E4AD22" d="M198 360h5l-4 2z"/><path fill="#E1AE1C" d="M137 563h1v5h-1z"/><path fill="#D9A624" d="m338 506 1 2-2 2z"/><path fill="#DDA822" d="m618 501 3 1-3 1z"/><path fill="#D5A129" d="M467 493h2l-1 3z"/><path fill="#DCAA29" d="m414 470 1 3-2 1z"/><path fill="#DCA729" d="M414 466h2l-1 4z"/><path fill="#D19F27" d="M272 457h1v5h-1z"/><path fill="#C89936" d="m550 446 2 2-2 2z"/><path fill="#C49332" d="M700 445h1v5h-1z"/><path fill="#C19132" d="M700 435h1v5h-1z"/><path fill="#D4A22D" d="m844 431 2 1-1 3z"/><path fill="#C99931" d="m486 432 2 3-3-1z"/><path fill="#C29332" d="M601 425h1v5h-1z"/><path fill="#E0AA24" d="m668 411 1 4-2-2z"/><path fill="#E3B21C" d="m202 625 1 4Z"/><path fill="#E0AE20" d="m202 620 1 2-3-1z"/><path fill="#DEAC21" d="m202 615 1 4Z"/><path fill="#E8B21A" d="m156 614 2 2-3-1z"/><path fill="#D9A72A" d="m223 611 1 4Z"/><path fill="#E7B21B" d="m532 603 1 4Z"/><path fill="#E4B11E" d="m532 587 1 4Z"/><path fill="#E1AE20" d="m532 571 1 4Z"/><path fill="#DEA922" d="m532 563 1 4Z"/><path fill="#E5AA18" d="m813 507 3 2h-3z"/><path fill="#E0AD1F" d="M768 505h2v2h-2z"/><path fill="#DEAA22" d="m796 496 3 1h-3z"/><path fill="#DEA81E" d="m860 492 1 3-2-1z"/><path fill="#D9A524" d="m761 492 2 1-1 2z"/><path fill="#D9A824" d="m344 489 1 4Z"/><path fill="#E4AD19" d="M895 482v3Z"/><path fill="#D6A625" d="M347 475v3Z"/><path fill="#CD9D36" d="M489 456h2l-1 3z"/><path fill="#CA9C34" d="m743 441 1 4Z"/><path fill="#CA9B31" d="m485 436 1 4Z"/><path fill="#C9992B" d="M497 432v3Z"/><path fill="#C39232" d="m700 422 1 4Z"/><path fill="#CB9B2B" d="m500 424 1 3-2-1z"/><path fill="#D1A230" d="M541 422h2l-1 3z"/><path fill="#C49537" d="m591 417 1 4Z"/><path fill="#DFAD21" d="m138 419 1 4Z"/><path fill="#CC9B31" d="m560 416 1 4Z"/><path fill="#DFAA1E" d="M146 396v3Z"/><path fill="#E0AB1A" d="m149 392 2 1-2 2z"/><path fill="#C39837" d="m324 391 4 1Z"/><path fill="#E4AD1A" d="m160 377 1 4Z"/><path fill="#E2AD21" d="m175 368 3 1-3 1z"/><path fill="#E5AF1C" d="m168 368 4 1Z"/><path fill="#E5AF20" d="m191 361 3 2h-3z"/><path fill="#E5B21D" d="m216 638 2 1-2 1z"/><path fill="#E6AF1A" d="M327 636h2l-1 2z"/><path fill="#E0AB1E" d="M222 632h2l-1 2z"/><path fill="#E6AF1E" d="M563 613h2l-1 2z"/><path fill="#E1AA1F" d="m210 579 3 1Z"/><path fill="#E5AC1C" d="m309 544 3 1Z"/><path fill="#DDAD28" d="m172 542 1 2-2-1z"/><path fill="#DFA91F" d="m317 536 2 1-2 1z"/><path fill="#D7A228" d="m538 504 1 2-2-1z"/><path fill="#D39F2E" d="m575 495 1 2-2-1z"/><path fill="#CF9E2A" d="m508 495 3 1Z"/><path fill="#DAA421" d="m609 492 2 2h-2z"/><path fill="#DEAD1C" d="m136 484 2 1-2 1z"/><path fill="#CB9B2C" d="m648 483 3 1Z"/><path fill="#CC9B2E" d="M656 480h2l-1 2z"/><path fill="#D19E25" d="m748 473 3 1Z"/><path fill="#C79532" d="m516 470 2 1-2 1z"/><path fill="#E5B828" d="m843 468 2 2h-2z"/><path fill="#CB992E" d="m601 458 1 2-2-1z"/><path fill="#DFAD1F" d="M136 459h2l-1 2z"/><path fill="#DCA828" d="M867 451h2l-1 2z"/><path fill="#DFAF20" d="m884 430 1 2-2-1z"/><path fill="#DCA827" d="m789 410 3 1Z"/><path fill="#E0AD24" d="m352 360 3 1Z"/><path fill="#D3A622" d="m348 360 3 1Z"/><path fill="#EBB217" d="m471 639 2 1Z"/><path fill="#EBB015" d="m464 637 2 1Z"/><path fill="#EEB215" d="m296 637 2 1Z"/><path fill="#E1AD17" d="m136 560 2 1Z"/><path fill="#D9A521" d="m305 551 2 1Z"/><path fill="#E0B221" d="m136 549 2 1Z"/><path fill="#D19E23" d="m486 511 2 1Z"/><path fill="#D4A022" d="m478 511 2 1Z"/><path fill="#E8B015" d="m872 509 2 1Z"/><path fill="#E2AA1F" d="m720 509 2 1Z"/><path fill="#E2AA1C" d="m712 509 2 1Z"/><path fill="#E1AB24" d="m665 509 2 1Z"/><path fill="#DCA521" d="m472 509 2 1Z"/><path fill="#DBA827" d="m633 508 2 1Z"/><path fill="#D9A324" d="m573 504 2 1Z"/><path fill="#D6A024" d="m232 485 2 1Z"/><path fill="#E8AF18" d="m894 480 2 1Z"/><path fill="#DFAC28" d="m414 478 2 1Z"/><path fill="#DDAF1C" d="m136 469 2 1Z"/><path fill="#CB9B2D" d="m600 461 2 1Z"/><path fill="#CD9C34" d="m488 453 2 1Z"/><path fill="#DFB21E" d="m136 453 2 1Z"/><path fill="#CA9A2F" d="m492 448 2 1Z"/><path fill="#CD9E2E" d="m748 446 2 1Z"/><path fill="#CF9F2D" d="m765 440 2 1Z"/><path fill="#D8A529" d="m206 440 2 1Z"/><path fill="#DEAF24" d="m260 423 2 1Z"/><path fill="#E1AE20" d="m894 419 2 1Z"/><path fill="#DAA424" d="m477 400 2 1Z"/><path fill="#E1AC1F" d="m152 388 2 1Z"/><path fill="#E5B320" d="m173 370 2 1Z"/><path fill="#D7A62B" d="m345 360 2 1Z"/></svg>