<svg xmlns="http://www.w3.org/2000/svg" width="275" height="276"><path fill="#18147B" d="M0 0h275v276H0z"/><path fill="#FCD201" d="M0 0h66v1l-2.937.594C42.667 6.018 23.846 16.346 12 34 4.155 47.285 1.541 59.635 1.596 75.062l-.02 4.42c-.019 3.967-.018 7.934-.012 11.901.003 3.33-.003 6.659-.009 9.988q-.02 11.798-.001 23.597c.011 8.073-.003 16.145-.03 24.218q-.032 10.452-.022 20.904c.003 4.145 0 8.29-.017 12.435q-.02 5.856.008 11.712.005 2.128-.01 4.256C1.356 216.923 6.12 235.173 19 249a290 290 0 0 0 3.61 3.117l1.92 1.637L26 255l.011-1.987c.042-6.896.112-13.792.197-20.688q.042-3.847.063-7.695c.133-22.83 1.363-41.722 17.9-59.052 15.502-14.13 35.095-16.663 55.267-17.016 22.128-.633 40.91-5.702 56.66-22.257 16.109-19.516 20.375-44.61 21.07-69.235.47-16.277.47-16.277 5.832-23.07 4.37-4.063 9.029-5.32 14.945-5.21 4.743.486 7.489 2.63 10.743 5.96 5.546 7.795 5.757 13.996 5.71 23.39l.01 3.87q.005 4.054-.017 8.11c-.017 3.405-.007 6.81.01 10.215.154 35.375-5.53 70.516-31.499 96.787-3.183 3.16-6.368 6.317-9.606 9.421C149.229 209.96 160.5 241.498 160 276H0z"/><path fill="#FDD300" d="M118.852 60.664c9.112 6.165 14.17 12.907 16.68 23.645 1.73 9.933-.272 19.35-5.966 27.746-6.53 8.11-14.383 12.854-24.566 14.945-10.511.953-19.156-1.001-27.812-7.125-8-6.712-12.297-16.306-13.504-26.562-.421-9.553 2.57-18.143 8.632-25.536 12.16-12.836 31.087-16.128 46.536-7.113"/><path fill="#FED300" d="M274 207h1v69h-73v-1l3.48-.7c19.677-4.074 36.042-10.874 50.52-25.3l1.926-1.855C268.292 236.365 272.6 221.558 274 207"/><path fill="#FDD400" d="M0 0h66v1l-2.937.594C42.667 6.018 23.846 16.346 12 34 5.859 44.4 2.363 55.008 1 67H0z"/><path fill="#FDD301" d="M215 0h60v64h-1l-.375-2.937c-1.945-13.26-6.803-25.232-15.496-35.583C257 24 257 24 256 21a89 89 0 0 0-4-2 97 97 0 0 1-3.375-3.187C239.042 7.31 227.231 3.758 215 1z"/><path fill="#171381" d="M80 221v55c-10.125 0-10.125 0-16-2q-.15-10.116-.22-20.233-.03-3.441-.082-6.882c-.048-3.299-.071-6.597-.089-9.897l-.062-3.103c-.002-4.442.004-7.121 2.29-11.01 4.86-4.214 7.047-2.666 14.163-1.875"/><path fill="#261A80" d="M26 199h1v57c-3-3-3-3-3.33-5.098l.065-2.446.052-2.782.104-3.002.073-3.098q.08-3.249.182-6.496c.103-3.3.186-6.601.264-9.902q.082-3.159.168-6.317l.08-2.977c.16-5.038.507-9.91 1.342-14.882"/><path fill="#F2D906" d="M215 0h21l-2 4 2.09 1.066C242.603 8.488 248.353 12.287 254 17l-2 2-1.258-1.285C240.617 8.077 228.331 4.005 215 1z"/><path fill="#EED409" d="M274 207h1q.08 4.406.125 8.813c.017.833.034 1.666.05 2.525l.02 2.432.032 2.237C275 225 275 225 273 228h-2v4h-2c.694-3.648 1.559-7.22 2.5-10.812 1.202-4.742 2.032-9.323 2.5-14.188"/><path fill="#F0D407" d="m222 271-2 5h-18v-1q4.437-1.004 8.875-2l2.55-.578 2.442-.547 2.254-.508C220 271 220 271 222 271"/><path fill="#0D0A91" d="M63 84h1l.367 3.543.508 4.644.238 2.33c.469 4.2 1.291 7.55 2.887 11.483l-1 3-1-3h-3c-.8-3.287-1.097-4.71 0-8 .07-2.395.084-4.792.063-7.187l-.028-3.856z"/><path fill="#0F0D8A" d="M260 28c4.154 3.693 7.27 7.633 9 13l-1 3-1-4-3 1-2-4h2l-2-3.375c-2-3.375-2-3.375-2-5.625"/><path fill="#16118E" d="m165 110 1 3c-1.145 2.227-1.145 2.227-2.812 4.625l-1.645 2.414C160 122 160 122 158 123a605 605 0 0 1 2-5l.73-1.855c2.044-5.032 2.044-5.032 4.27-6.145"/><path fill="#FAE204" d="M1 51h2L1 67H0q-.04-3.72-.062-7.437l-.026-2.143C-.097 55.613-.052 53.806 0 52z"/><path fill="#221981" d="m183 176 2 1c-1.457 4.615-1.457 4.615-3.937 6.375C179 184 179 184 176 183z"/><path fill="#EBD50C" d="M215 0h12l2 4-14-3z"/><path fill="#E7D60D" d="M72 113h2v2l1.688.75c2.712 1.466 4.948 3.28 7.312 5.25l-1 2a534 534 0 0 1-4.437-3.312l-2.497-1.864C73 116 73 116 72 113"/><path fill="#F7DD04" d="m202 141 3 1-4 10-2-1 1-1.687c1.132-2.619 1.076-4.493 1-7.313z"/><path fill="#0D0A92" d="m31 14 3 1-7 7-3-2q1.641-1.548 3.313-3.062l1.863-1.723z"/><path fill="#22197E" d="m132 113-1 3-3-1-1 4-3-1c2.275-3.358 3.697-5 8-5"/><path fill="#F8DB04" d="m44 166 2 1-2 5-4-2z"/><path fill="#F0D30A" d="M9 32c1.25 1.563 1.25 1.563 2 4-1.068 2.57-2.465 4.653-4 7-1.136-3.41-.867-4.003.438-7.187l.87-2.168z"/><path fill="#251F80" d="M65 2v2c-3.375.125-3.375.125-7 0l-2-2c3.325-1.108 5.622-.845 9 0"/><path fill="#E7CE0B" d="m76 64 1 2c-.687 2.063-.687 2.063-2 4-2.125.75-2.125.75-4 1 1.293-2.884 2.66-4.872 5-7"/><path fill="#110F92" d="M5 47c1.467 3.815.433 6.29-1 10H3q.211-2.22.438-4.437c.08-.824.162-1.648.246-2.497C4 48 4 48 5 47"/><path fill="#F5CD05" d="m1 46 3 3-1 3H0a100 100 0 0 1 0-5z"/></svg>